<svg width="32" height="32" viewBox="0 0 32 32" fill="none" xmlns="http://www.w3.org/2000/svg">
<path d="M24.0132 7.98576C22.9632 6.93025 21.7144 6.09344 20.3389 5.52373C18.9634 4.95401 17.4886 4.66272 15.9998 4.66669H11.8856L15.0989 1.45256L14.1562 0.509766L9.33317 5.33336L14.1568 10.157L15.0994 9.21416L11.8856 6.00003H15.9998C17.9777 6.00003 19.911 6.58652 21.5556 7.68533C23.2 8.78415 24.4817 10.3459 25.2386 12.1732C25.9956 14.0004 26.1936 16.0111 25.8077 17.9509C25.4218 19.8908 24.4694 21.6725 23.0709 23.0711C21.6724 24.4696 19.8905 25.422 17.9508 25.8079C16.0109 26.1937 14.0002 25.9957 12.173 25.2388C10.3457 24.482 8.78396 23.2003 7.68514 21.5557C6.58633 19.9112 5.99984 17.9779 5.99984 16H4.6665C4.66648 17.8639 5.12612 19.6989 6.00472 21.3427C6.8833 22.9864 8.15373 24.3881 9.70344 25.4236C11.2532 26.4591 13.0343 27.0963 14.8892 27.2789C16.744 27.4616 18.6153 27.184 20.3372 26.4707C22.0592 25.7575 23.5785 24.6304 24.7609 23.1896C25.9432 21.7488 26.752 20.0387 27.1156 18.2107C27.479 16.3827 27.3861 14.4932 26.845 12.7097C26.3038 10.9261 25.3312 9.30359 24.0132 7.98576Z" fill="#323232"/>
</svg>
