<svg width="32" height="32" viewBox="0 0 32 32" fill="none" xmlns="http://www.w3.org/2000/svg">
<path d="M25.9998 16C25.9998 17.9779 25.4133 19.9112 24.3145 21.5557C23.2157 23.2003 21.654 24.482 19.8266 25.2388C17.9994 25.9957 15.9888 26.1937 14.0489 25.8079C12.1091 25.422 10.3273 24.4696 8.92877 23.0711C7.53025 21.6725 6.57784 19.8908 6.19199 17.9509C5.80613 16.0111 6.00417 14.0004 6.76105 12.1732C7.51792 10.3459 8.79965 8.78415 10.4441 7.68533C12.0886 6.58652 14.022 6.00003 15.9998 6.00003H20.1141L16.9008 9.21416L17.8434 10.157L22.6665 5.33336L17.8429 0.509766L16.9002 1.45256L20.1141 4.66669H15.9998C13.7584 4.66669 11.5671 5.33139 9.70339 6.57671C7.83963 7.82203 6.387 9.59205 5.52921 11.6629C4.67141 13.7339 4.44697 16.0127 4.88428 18.2111C5.32157 20.4095 6.40097 22.4289 7.98597 24.0139C9.57096 25.5989 11.5904 26.6783 13.7888 27.1156C15.9873 27.5529 18.266 27.3284 20.3369 26.4707C22.4078 25.6129 24.1778 24.1603 25.4232 22.2965C26.6685 20.4328 27.3332 18.2416 27.3332 16H25.9998Z" fill="#323232"/>
</svg>
